<svg xmlns="http://www.w3.org/2000/svg" xmlns:xlink="http://www.w3.org/1999/xlink" version="1.1" width="810pt" height="810pt" viewBox="0 0 810 810">
<defs>
<clipPath id="clip_0">
<path transform="matrix(.24,0,0,.24,0,0)" d="M0 0H3375V3375H0Z" fill-rule="evenodd"/>
</clipPath>
<clipPath id="clip_1">
<path transform="matrix(.24,0,0,.24,0,0)" d="M0 0H3375V3375H0Z" fill-rule="evenodd"/>
</clipPath>
<clipPath id="clip_2">
<path transform="matrix(.24,0,0,.24,0,0)" d="M349.06748 1239.4581H1245.9425V2136.333H349.06748Z" fill-rule="evenodd"/>
</clipPath>
<clipPath id="clip_3">
<path transform="matrix(.24,0,0,.24,0,0)" d="M594.32717 1483.6987H1000.57717V1889.9487H594.32717Z" fill-rule="evenodd"/>
</clipPath>
<clipPath id="clip_4">
<path transform="matrix(.24,0,0,.24,0,0)" d="M0 0H3375V3375H0Z" fill-rule="evenodd"/>
</clipPath>
<path id="font_5_41" d="M.15600586 .58999636V.3600006H.5149994V.28700257H.15600586V0H.08099365V.66200259H.55900576V.58999636H.15600586Z"/>
<path id="font_5_40" d="M.15600586 .58999636V.36799623H.5240021V.29499818H.15600586V.072006229H.56799319V0H.08099365V.66200259H.56799319V.58999636H.15600586Z"/>
<path id="font_5_39" d="M.3600006 .66200259C.39933778 .66200259 .43733726 .6545003 .47399903 .63949587 .51067098 .6245015 .54300436 .6026713 .57099917 .5740051 .6330007 .51067098 .66400149 .42966715 .66400149 .33099366 .66400149 .23233032 .6330007 .15133159 .57099917 .08799744 .54300436 .059331258 .51067098 .03749593 .47399903 .022491456 .43733726 .007497152 .39933778 0 .3600006 0H.08099365V.66200259H.3600006M.35699464 .070999149C.42633058 .070999149 .48266603 .09666443 .526001 .147995 .56800338 .19733174 .5890045 .2583313 .5890045 .33099366 .5890045 .40366618 .56800338 .4646708 .526001 .51400759 .48266603 .56533816 .42633058 .5910034 .35699464 .5910034H.15600586V.070999149H.35699464Z"/>
</defs>
<g clip-path="url(#clip_0)">
<path transform="matrix(.75,0,0,.75,0,0)" d="M0 0H1080V1080H0Z" fill="#ffffff"/>
</g>
<g clip-path="url(#clip_1)">
<path transform="matrix(.75,0,0,.75,0,0)" d="M0 0H1080V1080H0Z" fill="#ffffff"/>
</g>
<g clip-path="url(#clip_2)">
<path transform="matrix(.4876435,0,0,.4876435,84.02001,297.71376)" d="M40 300C39.999998 301.3132 39.8719 302.61378 39.6157 303.90177 39.359506 305.18977 38.980134 306.4404 38.477586 307.65364 37.975038 308.86689 37.35897 310.01948 36.629384 311.11137 35.8998 312.20329 35.070718 313.21354 34.14213 314.14213 33.213548 315.0707 32.2033 315.89979 31.1114 316.62937 30.0195 317.35896 28.866923 317.975 27.653666 318.47755 26.440409 318.98008 25.189789 319.35948 23.901804 319.61567 22.61382 319.87187 21.313218 319.99998 20 320 18.68678 319.99998 17.386178 319.87187 16.098193 319.61567 14.810206 319.35948 13.559586 318.98008 12.34633 318.47755 11.133074 317.975 9.980495 317.35896 8.888595 316.62937 7.796693 315.89979 6.7864496 315.0707 5.857864 314.14213 4.9292786 313.21354 4.1001927 312.20329 3.3706074 311.1114 2.641022 310.01948 2.024956 308.86689 1.5224091 307.65364 1.0198622 306.4404 .64049056 305.18977 .38429434 303.90177 .1280981 302.61378 0 301.3132 0 300 0 298.68678 .1280981 297.38618 .38429434 296.09819 .64049056 294.81019 1.0198622 293.55955 1.5224091 292.34629 2.024956 291.13307 2.641022 289.98048 3.3706072 288.88856 4.1001927 287.79667 4.9292786 286.7864 5.857864 285.85786 6.7864496 284.92924 7.796693 284.10017 8.888595 283.37059 9.980495 282.641 11.133074 282.02494 12.34633 281.5224 13.559586 281.01988 14.810206 280.6405 16.098193 280.3843 17.386178 280.1281 18.68678 280 20 280 21.313218 280 22.61382 280.1281 23.901804 280.3843 25.189789 280.6405 26.440409 281.01988 27.653666 281.5224 28.866923 282.02494 30.0195 282.641 31.111403 283.37059 32.2033 284.10017 33.213548 284.92924 34.14213 285.85786 35.070718 286.7864 35.8998 287.79667 36.629384 288.88856 37.35897 289.98048 37.975038 291.13307 38.477586 292.34629 38.980134 293.55955 39.359506 294.81019 39.6157 296.09819 39.8719 297.38618 39.999998 298.68678 40 300Z" fill="#004aad"/>
<path transform="matrix(.4876435,0,0,.4876435,84.02001,297.71376)" stroke-width="1" stroke-linecap="butt" stroke-miterlimit="4" stroke-linejoin="miter" fill="none" stroke="#000000" d="M40 300C39.999998 301.3132 39.8719 302.61378 39.6157 303.90177 39.359506 305.18977 38.980134 306.4404 38.477586 307.65364 37.975038 308.86689 37.35897 310.01948 36.629384 311.11137 35.8998 312.20329 35.070718 313.21354 34.14213 314.14213 33.213548 315.0707 32.2033 315.89979 31.1114 316.62937 30.0195 317.35896 28.866923 317.975 27.653666 318.47755 26.440409 318.98008 25.189789 319.35948 23.901804 319.61567 22.61382 319.87187 21.313218 319.99998 20 320 18.68678 319.99998 17.386178 319.87187 16.098193 319.61567 14.810206 319.35948 13.559586 318.98008 12.34633 318.47755 11.133074 317.975 9.980495 317.35896 8.888595 316.62937 7.796693 315.89979 6.7864496 315.0707 5.857864 314.14213 4.9292786 313.21354 4.1001927 312.20329 3.3706074 311.1114 2.641022 310.01948 2.024956 308.86689 1.5224091 307.65364 1.0198622 306.4404 .64049056 305.18977 .38429434 303.90177 .1280981 302.61378 0 301.3132 0 300 0 298.68678 .1280981 297.38618 .38429434 296.09819 .64049056 294.81019 1.0198622 293.55955 1.5224091 292.34629 2.024956 291.13307 2.641022 289.98048 3.3706072 288.88856 4.1001927 287.79667 4.9292786 286.7864 5.857864 285.85786 6.7864496 284.92924 7.796693 284.10017 8.888595 283.37059 9.980495 282.641 11.133074 282.02494 12.34633 281.5224 13.559586 281.01988 14.810206 280.6405 16.098193 280.3843 17.386178 280.1281 18.68678 280 20 280 21.313218 280 22.61382 280.1281 23.901804 280.3843 25.189789 280.6405 26.440409 281.01988 27.653666 281.5224 28.866923 282.02494 30.0195 282.641 31.111403 283.37059 32.2033 284.10017 33.213548 284.92924 34.14213 285.85786 35.070718 286.7864 35.8998 287.79667 36.629384 288.88856 37.35897 289.98048 37.975038 291.13307 38.477586 292.34629 38.980134 293.55955 39.359506 294.81019 39.6157 296.09819 39.8719 297.38618 39.999998 298.68678 40 300Z"/>
<path transform="matrix(.4876435,0,0,.4876435,84.02001,297.71376)" d="M159 420C159 421.3132 158.8719 422.6138 158.6157 423.90177 158.3595 425.18977 157.98014 426.44038 157.47759 427.6536 156.97504 428.86686 156.35898 430.01945 155.6294 431.11137 154.89981 432.20326 154.07073 433.21348 153.14214 434.1421 152.21355 435.07066 151.2033 435.89976 150.11139 436.62934 149.01949 437.3589 147.86692 437.97496 146.65366 438.4775 145.4404 438.98005 144.18979 439.35945 142.90181 439.61567 141.61382 439.87187 140.31322 439.99998 139 440 137.68677 439.99998 136.38616 439.87187 135.09816 439.61567 133.81018 439.35945 132.55956 438.98005 131.34632 438.4775 130.13306 437.97496 128.98049 437.3589 127.88858 436.62934 126.796688 435.89976 125.78644 435.07066 124.85786 434.1421 123.92927 433.21348 123.10018 432.20323 122.3706 431.11134 121.64101 430.01945 121.02493 428.86686 120.52239 427.6536 120.01985 426.44038 119.64048 425.18977 119.384288 423.90177 119.12809 422.6138 118.99999 421.3132 119 420 118.99999 418.68678 119.12809 417.38618 119.384288 416.09819 119.64047 414.81019 120.019847 413.55958 120.522388 412.3463 121.02493 411.13304 121.641 409.98048 122.37059 408.8886 123.10018 407.7967 123.92927 406.78645 124.85786 405.85786 125.78644 404.92924 126.796688 404.10014 127.88858 403.37055 128.98049 402.64097 130.13306 402.0249 131.34632 401.52238 132.55956 401.01985 133.81018 400.64048 135.09816 400.38429 136.38616 400.12809 137.68677 400 139 400 140.31322 400 141.61382 400.12809 142.90181 400.38426 144.18979 400.64045 145.4404 401.01985 146.65366 401.52238 147.86692 402.0249 149.01949 402.64097 150.11139 403.37055 151.2033 404.10014 152.21355 404.92924 153.14214 405.85786 154.07073 406.78645 154.89981 407.7967 155.6294 408.88859 156.35898 409.98048 156.97504 411.13304 157.47759 412.3463 157.98014 413.55958 158.3595 414.81019 158.6157 416.09819 158.8719 417.38618 159 418.68678 159 420Z" fill="#004aad"/>
<path transform="matrix(.4876435,0,0,.4876435,84.02001,297.71376)" stroke-width="1" stroke-linecap="butt" stroke-miterlimit="4" stroke-linejoin="miter" fill="none" stroke="#000000" d="M159 420C159 421.3132 158.8719 422.6138 158.6157 423.90177 158.3595 425.18977 157.98014 426.44038 157.47759 427.6536 156.97504 428.86686 156.35898 430.01945 155.6294 431.11137 154.89981 432.20326 154.07073 433.21348 153.14214 434.1421 152.21355 435.07066 151.2033 435.89976 150.11139 436.62934 149.01949 437.3589 147.86692 437.97496 146.65366 438.4775 145.4404 438.98005 144.18979 439.35945 142.90181 439.61567 141.61382 439.87187 140.31322 439.99998 139 440 137.68677 439.99998 136.38616 439.87187 135.09816 439.61567 133.81018 439.35945 132.55956 438.98005 131.34632 438.4775 130.13306 437.97496 128.98049 437.3589 127.88858 436.62934 126.796688 435.89976 125.78644 435.07066 124.85786 434.1421 123.92927 433.21348 123.10018 432.20323 122.3706 431.11134 121.64101 430.01945 121.02493 428.86686 120.52239 427.6536 120.01985 426.44038 119.64048 425.18977 119.384288 423.90177 119.12809 422.6138 118.99999 421.3132 119 420 118.99999 418.68678 119.12809 417.38618 119.384288 416.09819 119.64047 414.81019 120.019847 413.55958 120.522388 412.3463 121.02493 411.13304 121.641 409.98048 122.37059 408.8886 123.10018 407.7967 123.92927 406.78645 124.85786 405.85786 125.78644 404.92924 126.796688 404.10014 127.88858 403.37055 128.98049 402.64097 130.13306 402.0249 131.34632 401.52238 132.55956 401.01985 133.81018 400.64048 135.09816 400.38429 136.38616 400.12809 137.68677 400 139 400 140.31322 400 141.61382 400.12809 142.90181 400.38426 144.18979 400.64045 145.4404 401.01985 146.65366 401.52238 147.86692 402.0249 149.01949 402.64097 150.11139 403.37055 151.2033 404.10014 152.21355 404.92924 153.14214 405.85786 154.07073 406.78645 154.89981 407.7967 155.6294 408.88859 156.35898 409.98048 156.97504 411.13304 157.47759 412.3463 157.98014 413.55958 158.3595 414.81019 158.6157 416.09819 158.8719 417.38618 159 418.68678 159 420Z"/>
<path transform="matrix(.4876435,0,0,.4876435,84.02001,297.71376)" stroke-width="1" stroke-linecap="butt" stroke-miterlimit="10" stroke-linejoin="miter" fill="none" stroke="#000000" d="M124.86 405.86 34.14 314.14"/>
<path transform="matrix(.4876435,0,0,.4876435,84.02001,297.71376)" d="M159 20C159 21.313218 158.8719 22.61382 158.6157 23.901804 158.3595 25.189789 157.98014 26.440409 157.47759 27.653666 156.97504 28.866923 156.35898 30.0195 155.6294 31.111403 154.89981 32.2033 154.07073 33.213548 153.14214 34.14213 152.21355 35.070718 151.2033 35.8998 150.11139 36.629384 149.01949 37.35897 147.86692 37.975038 146.65366 38.477586 145.4404 38.980134 144.18979 39.359506 142.90181 39.6157 141.61382 39.8719 140.31322 39.999998 139 40 137.68677 39.999998 136.38616 39.8719 135.09816 39.6157 133.81018 39.359506 132.55956 38.980134 131.34632 38.477586 130.13306 37.975038 128.98049 37.35897 127.88858 36.629384 126.796688 35.8998 125.78644 35.070718 124.85786 34.14213 123.92927 33.213548 123.10018 32.2033 122.3706 31.1114 121.64101 30.0195 121.02493 28.866923 120.52239 27.653666 120.01985 26.440409 119.64048 25.189789 119.384288 23.901804 119.12809 22.61382 118.99999 21.313218 119 20 118.99999 18.68678 119.12809 17.386178 119.384288 16.098193 119.64047 14.810206 120.019847 13.559586 120.522388 12.34633 121.02493 11.133074 121.641 9.980495 122.37059 8.888595 123.10018 7.796693 123.92927 6.7864496 124.85786 5.857864 125.78644 4.9292786 126.796688 4.1001927 127.88858 3.3706074 128.98049 2.641022 130.13306 2.024956 131.34632 1.5224091 132.55956 1.0198622 133.81018 .64049056 135.09816 .38429434 136.38616 .1280981 137.68677 0 139 0 140.31322 0 141.61382 .1280981 142.90181 .38429434 144.18979 .64049056 145.4404 1.0198622 146.65366 1.5224091 147.86692 2.024956 149.01949 2.641022 150.11139 3.3706072 151.2033 4.1001927 152.21355 4.9292786 153.14214 5.857864 154.07073 6.7864496 154.89981 7.796693 155.6294 8.888595 156.35898 9.980495 156.97504 11.133074 157.47759 12.34633 157.98014 13.559586 158.3595 14.810206 158.6157 16.098193 158.8719 17.386178 159 18.68678 159 20Z" fill="#004aad"/>
<path transform="matrix(.4876435,0,0,.4876435,84.02001,297.71376)" stroke-width="1" stroke-linecap="butt" stroke-miterlimit="4" stroke-linejoin="miter" fill="none" stroke="#000000" d="M159 20C159 21.313218 158.8719 22.61382 158.6157 23.901804 158.3595 25.189789 157.98014 26.440409 157.47759 27.653666 156.97504 28.866923 156.35898 30.0195 155.6294 31.111403 154.89981 32.2033 154.07073 33.213548 153.14214 34.14213 152.21355 35.070718 151.2033 35.8998 150.11139 36.629384 149.01949 37.35897 147.86692 37.975038 146.65366 38.477586 145.4404 38.980134 144.18979 39.359506 142.90181 39.6157 141.61382 39.8719 140.31322 39.999998 139 40 137.68677 39.999998 136.38616 39.8719 135.09816 39.6157 133.81018 39.359506 132.55956 38.980134 131.34632 38.477586 130.13306 37.975038 128.98049 37.35897 127.88858 36.629384 126.796688 35.8998 125.78644 35.070718 124.85786 34.14213 123.92927 33.213548 123.10018 32.2033 122.3706 31.1114 121.64101 30.0195 121.02493 28.866923 120.52239 27.653666 120.01985 26.440409 119.64048 25.189789 119.384288 23.901804 119.12809 22.61382 118.99999 21.313218 119 20 118.99999 18.68678 119.12809 17.386178 119.384288 16.098193 119.64047 14.810206 120.019847 13.559586 120.522388 12.34633 121.02493 11.133074 121.641 9.980495 122.37059 8.888595 123.10018 7.796693 123.92927 6.7864496 124.85786 5.857864 125.78644 4.9292786 126.796688 4.1001927 127.88858 3.3706074 128.98049 2.641022 130.13306 2.024956 131.34632 1.5224091 132.55956 1.0198622 133.81018 .64049056 135.09816 .38429434 136.38616 .1280981 137.68677 0 139 0 140.31322 0 141.61382 .1280981 142.90181 .38429434 144.18979 .64049056 145.4404 1.0198622 146.65366 1.5224091 147.86692 2.024956 149.01949 2.641022 150.11139 3.3706072 151.2033 4.1001927 152.21355 4.9292786 153.14214 5.857864 154.07073 6.7864496 154.89981 7.796693 155.6294 8.888595 156.35898 9.980495 156.97504 11.133074 157.47759 12.34633 157.98014 13.559586 158.3595 14.810206 158.6157 16.098193 158.8719 17.386178 159 18.68678 159 20Z"/>
<path transform="matrix(.4876435,0,0,.4876435,84.02001,297.71376)" d="M320 20C319.99998 21.313218 319.87187 22.61382 319.61567 23.901804 319.35948 25.189789 318.98008 26.440409 318.47755 27.653666 317.975 28.866923 317.35896 30.0195 316.62937 31.111403 315.89979 32.2033 315.0707 33.213548 314.14213 34.14213 313.21354 35.070718 312.20329 35.8998 311.1114 36.629384 310.01948 37.35897 308.86689 37.975038 307.65364 38.477586 306.4404 38.980134 305.18977 39.359506 303.90177 39.6157 302.61378 39.8719 301.3132 39.999998 300 40 298.68678 39.999998 297.38618 39.8719 296.09819 39.6157 294.81019 39.359506 293.55955 38.980134 292.34629 38.477586 291.13307 37.975038 289.98048 37.35897 288.88856 36.629384 287.79667 35.8998 286.7864 35.070718 285.85786 34.14213 284.92924 33.213548 284.10017 32.2033 283.37059 31.1114 282.641 30.0195 282.0249 28.866923 281.52238 27.653666 281.01985 26.440409 280.64048 25.189789 280.38429 23.901804 280.12809 22.61382 280 21.313218 280 20 280 18.68678 280.12809 17.386178 280.38429 16.098193 280.64048 14.810206 281.01985 13.559586 281.52238 12.34633 282.0249 11.133074 282.641 9.980495 283.37059 8.888595 284.10017 7.796693 284.92924 6.7864496 285.85786 5.857864 286.7864 4.9292786 287.79667 4.1001927 288.88856 3.3706074 289.98048 2.641022 291.13307 2.024956 292.34629 1.5224091 293.55955 1.0198622 294.81019 .64049056 296.09819 .38429434 297.38618 .1280981 298.68678 0 300 0 301.3132 0 302.61378 .1280981 303.90177 .38429434 305.18977 .64049056 306.4404 1.0198622 307.65364 1.5224091 308.86689 2.024956 310.01948 2.641022 311.11137 3.3706072 312.20329 4.1001927 313.21354 4.9292786 314.14213 5.857864 315.0707 6.7864496 315.89979 7.796693 316.62937 8.888595 317.35896 9.980495 317.975 11.133074 318.47755 12.34633 318.98008 13.559586 319.35948 14.810206 319.61567 16.098193 319.87187 17.386178 319.99998 18.68678 320 20Z" fill="#004aad"/>
<path transform="matrix(.4876435,0,0,.4876435,84.02001,297.71376)" stroke-width="1" stroke-linecap="butt" stroke-miterlimit="4" stroke-linejoin="miter" fill="none" stroke="#000000" d="M320 20C319.99998 21.313218 319.87187 22.61382 319.61567 23.901804 319.35948 25.189789 318.98008 26.440409 318.47755 27.653666 317.975 28.866923 317.35896 30.0195 316.62937 31.111403 315.89979 32.2033 315.0707 33.213548 314.14213 34.14213 313.21354 35.070718 312.20329 35.8998 311.1114 36.629384 310.01948 37.35897 308.86689 37.975038 307.65364 38.477586 306.4404 38.980134 305.18977 39.359506 303.90177 39.6157 302.61378 39.8719 301.3132 39.999998 300 40 298.68678 39.999998 297.38618 39.8719 296.09819 39.6157 294.81019 39.359506 293.55955 38.980134 292.34629 38.477586 291.13307 37.975038 289.98048 37.35897 288.88856 36.629384 287.79667 35.8998 286.7864 35.070718 285.85786 34.14213 284.92924 33.213548 284.10017 32.2033 283.37059 31.1114 282.641 30.0195 282.0249 28.866923 281.52238 27.653666 281.01985 26.440409 280.64048 25.189789 280.38429 23.901804 280.12809 22.61382 280 21.313218 280 20 280 18.68678 280.12809 17.386178 280.38429 16.098193 280.64048 14.810206 281.01985 13.559586 281.52238 12.34633 282.0249 11.133074 282.641 9.980495 283.37059 8.888595 284.10017 7.796693 284.92924 6.7864496 285.85786 5.857864 286.7864 4.9292786 287.79667 4.1001927 288.88856 3.3706074 289.98048 2.641022 291.13307 2.024956 292.34629 1.5224091 293.55955 1.0198622 294.81019 .64049056 296.09819 .38429434 297.38618 .1280981 298.68678 0 300 0 301.3132 0 302.61378 .1280981 303.90177 .38429434 305.18977 .64049056 306.4404 1.0198622 307.65364 1.5224091 308.86689 2.024956 310.01948 2.641022 311.11137 3.3706072 312.20329 4.1001927 313.21354 4.9292786 314.14213 5.857864 315.0707 6.7864496 315.89979 7.796693 316.62937 8.888595 317.35896 9.980495 317.975 11.133074 318.47755 12.34633 318.98008 13.559586 319.35948 14.810206 319.61567 16.098193 319.87187 17.386178 319.99998 18.68678 320 20Z"/>
<path transform="matrix(.4876435,0,0,.4876435,84.02001,297.71376)" d="M40 140C39.999998 141.31322 39.8719 142.61382 39.6157 143.9018 39.359506 145.18978 38.980134 146.4404 38.477586 147.65366 37.975038 148.86692 37.35897 150.01949 36.629384 151.11139 35.8998 152.2033 35.070718 153.21353 34.14213 154.14212 33.213548 155.0707 32.2033 155.89978 31.1114 156.62937 30.0195 157.35895 28.866923 157.97502 27.653666 158.47757 26.440409 158.98012 25.189789 159.35948 23.901804 159.61569 22.61382 159.87189 21.313218 159.99999 20 160 18.68678 159.99999 17.386178 159.87189 16.098193 159.61569 14.810206 159.35948 13.559586 158.98012 12.34633 158.47757 11.133074 157.97502 9.980495 157.35895 8.888595 156.62937 7.796693 155.89978 6.7864496 155.0707 5.857864 154.14212 4.9292786 153.21353 4.1001927 152.2033 3.3706074 151.11139 2.641022 150.01949 2.024956 148.86692 1.5224091 147.65366 1.0198622 146.4404 .64049056 145.18978 .38429434 143.9018 .1280981 142.61382 0 141.31322 0 140 0 138.68677 .1280981 137.38616 .38429434 136.09818 .64049056 134.8102 1.0198622 133.55957 1.5224091 132.34632 2.024956 131.13306 2.641022 129.98049 3.3706072 128.88858 4.1001927 127.79668 4.9292786 126.78644 5.857864 125.85786 6.7864496 124.92927 7.796693 124.10018 8.888595 123.3706 9.980495 122.641017 11.133074 122.02495 12.34633 121.5224 13.559586 121.01986 14.810206 120.64049 16.098193 120.38429 17.386178 120.1281 18.68678 120 20 120 21.313218 120 22.61382 120.1281 23.901804 120.38429 25.189789 120.64048 26.440409 121.01985 27.653666 121.52239 28.866923 122.02495 30.0195 122.641017 31.111403 123.3706 32.2033 124.10018 33.213548 124.92927 34.14213 125.85786 35.070718 126.78644 35.8998 127.79668 36.629384 128.88858 37.35897 129.98049 37.975038 131.13306 38.477586 132.34632 38.980134 133.55957 39.359506 134.8102 39.6157 136.09818 39.8719 137.38616 39.999998 138.68677 40 140Z" fill="#004aad"/>
<path transform="matrix(.4876435,0,0,.4876435,84.02001,297.71376)" stroke-width="1" stroke-linecap="butt" stroke-miterlimit="4" stroke-linejoin="miter" fill="none" stroke="#000000" d="M40 140C39.999998 141.31322 39.8719 142.61382 39.6157 143.9018 39.359506 145.18978 38.980134 146.4404 38.477586 147.65366 37.975038 148.86692 37.35897 150.01949 36.629384 151.11139 35.8998 152.2033 35.070718 153.21353 34.14213 154.14212 33.213548 155.0707 32.2033 155.89978 31.1114 156.62937 30.0195 157.35895 28.866923 157.97502 27.653666 158.47757 26.440409 158.98012 25.189789 159.35948 23.901804 159.61569 22.61382 159.87189 21.313218 159.99999 20 160 18.68678 159.99999 17.386178 159.87189 16.098193 159.61569 14.810206 159.35948 13.559586 158.98012 12.34633 158.47757 11.133074 157.97502 9.980495 157.35895 8.888595 156.62937 7.796693 155.89978 6.7864496 155.0707 5.857864 154.14212 4.9292786 153.21353 4.1001927 152.2033 3.3706074 151.11139 2.641022 150.01949 2.024956 148.86692 1.5224091 147.65366 1.0198622 146.4404 .64049056 145.18978 .38429434 143.9018 .1280981 142.61382 0 141.31322 0 140 0 138.68677 .1280981 137.38616 .38429434 136.09818 .64049056 134.8102 1.0198622 133.55957 1.5224091 132.34632 2.024956 131.13306 2.641022 129.98049 3.3706072 128.88858 4.1001927 127.79668 4.9292786 126.78644 5.857864 125.85786 6.7864496 124.92927 7.796693 124.10018 8.888595 123.3706 9.980495 122.641017 11.133074 122.02495 12.34633 121.5224 13.559586 121.01986 14.810206 120.64049 16.098193 120.38429 17.386178 120.1281 18.68678 120 20 120 21.313218 120 22.61382 120.1281 23.901804 120.38429 25.189789 120.64048 26.440409 121.01985 27.653666 121.52239 28.866923 122.02495 30.0195 122.641017 31.111403 123.3706 32.2033 124.10018 33.213548 124.92927 34.14213 125.85786 35.070718 126.78644 35.8998 127.79668 36.629384 128.88858 37.35897 129.98049 37.975038 131.13306 38.477586 132.34632 38.980134 133.55957 39.359506 134.8102 39.6157 136.09818 39.8719 137.38616 39.999998 138.68677 40 140Z"/>
<path transform="matrix(.4876435,0,0,.4876435,84.02001,297.71376)" stroke-width="1" stroke-linecap="butt" stroke-miterlimit="10" stroke-linejoin="miter" fill="none" stroke="#000000" d="M20 280V160"/>
<path transform="matrix(.4876435,0,0,.4876435,84.02001,297.71376)" stroke-width="1" stroke-linecap="butt" stroke-miterlimit="10" stroke-linejoin="miter" fill="none" stroke="#000000" d="M34.14 125.86 124.86 34.14"/>
<path transform="matrix(.4876435,0,0,.4876435,84.02001,297.71376)" stroke-width="1" stroke-linecap="butt" stroke-miterlimit="10" stroke-linejoin="miter" fill="none" stroke="#000000" d="M159 20H280"/>
<path transform="matrix(.4876435,0,0,.4876435,84.02001,297.71376)" d="M440 300C439.99998 301.3132 439.87187 302.61378 439.61567 303.90177 439.35945 305.18977 438.98005 306.4404 438.4775 307.65364 437.97496 308.86689 437.3589 310.01948 436.62934 311.11137 435.89976 312.20329 435.07066 313.21354 434.1421 314.14213 433.21348 315.0707 432.20323 315.89979 431.11134 316.62937 430.01945 317.35896 428.86686 317.975 427.6536 318.47755 426.44038 318.98008 425.18977 319.35948 423.90177 319.61567 422.6138 319.87187 421.3132 319.99998 420 320 418.68678 319.99998 417.38618 319.87187 416.09819 319.61567 414.81019 319.35948 413.55958 318.98008 412.3463 318.47755 411.13304 317.975 409.98048 317.35896 408.8886 316.62937 407.7967 315.89979 406.78645 315.0707 405.85786 314.14213 404.92924 313.21354 404.10014 312.20329 403.37055 311.1114 402.64097 310.01948 402.0249 308.86689 401.52238 307.65364 401.0198 306.4404 400.64045 305.18977 400.38426 303.90177 400.12806 302.61378 399.99998 301.3132 400 300 399.99998 298.68678 400.12806 297.38618 400.38426 296.09819 400.64045 294.81019 401.0198 293.55955 401.52238 292.34629 402.0249 291.13307 402.64097 289.98048 403.37055 288.88856 404.10014 287.79667 404.92924 286.7864 405.85786 285.85786 406.78645 284.92924 407.7967 284.10017 408.88859 283.37059 409.98048 282.641 411.13304 282.02494 412.3463 281.5224 413.55958 281.01988 414.81019 280.6405 416.09819 280.3843 417.38618 280.1281 418.68678 280 420 280 421.3132 280 422.6138 280.1281 423.90177 280.3843 425.18977 280.6405 426.44038 281.01988 427.6536 281.5224 428.86686 282.02494 430.01945 282.641 431.11137 283.37059 432.20326 284.10017 433.21348 284.92924 434.1421 285.85786 435.07066 286.7864 435.89976 287.79667 436.62934 288.88856 437.3589 289.98048 437.97496 291.13307 438.4775 292.34629 438.98005 293.55955 439.35945 294.81019 439.61567 296.09819 439.87187 297.38618 439.99998 298.68678 440 300Z" fill="#004aad"/>
<path transform="matrix(.4876435,0,0,.4876435,84.02001,297.71376)" stroke-width="1" stroke-linecap="butt" stroke-miterlimit="4" stroke-linejoin="miter" fill="none" stroke="#000000" d="M440 300C439.99998 301.3132 439.87187 302.61378 439.61567 303.90177 439.35945 305.18977 438.98005 306.4404 438.4775 307.65364 437.97496 308.86689 437.3589 310.01948 436.62934 311.11137 435.89976 312.20329 435.07066 313.21354 434.1421 314.14213 433.21348 315.0707 432.20323 315.89979 431.11134 316.62937 430.01945 317.35896 428.86686 317.975 427.6536 318.47755 426.44038 318.98008 425.18977 319.35948 423.90177 319.61567 422.6138 319.87187 421.3132 319.99998 420 320 418.68678 319.99998 417.38618 319.87187 416.09819 319.61567 414.81019 319.35948 413.55958 318.98008 412.3463 318.47755 411.13304 317.975 409.98048 317.35896 408.8886 316.62937 407.7967 315.89979 406.78645 315.0707 405.85786 314.14213 404.92924 313.21354 404.10014 312.20329 403.37055 311.1114 402.64097 310.01948 402.0249 308.86689 401.52238 307.65364 401.0198 306.4404 400.64045 305.18977 400.38426 303.90177 400.12806 302.61378 399.99998 301.3132 400 300 399.99998 298.68678 400.12806 297.38618 400.38426 296.09819 400.64045 294.81019 401.0198 293.55955 401.52238 292.34629 402.0249 291.13307 402.64097 289.98048 403.37055 288.88856 404.10014 287.79667 404.92924 286.7864 405.85786 285.85786 406.78645 284.92924 407.7967 284.10017 408.88859 283.37059 409.98048 282.641 411.13304 282.02494 412.3463 281.5224 413.55958 281.01988 414.81019 280.6405 416.09819 280.3843 417.38618 280.1281 418.68678 280 420 280 421.3132 280 422.6138 280.1281 423.90177 280.3843 425.18977 280.6405 426.44038 281.01988 427.6536 281.5224 428.86686 282.02494 430.01945 282.641 431.11137 283.37059 432.20326 284.10017 433.21348 284.92924 434.1421 285.85786 435.07066 286.7864 435.89976 287.79667 436.62934 288.88856 437.3589 289.98048 437.97496 291.13307 438.4775 292.34629 438.98005 293.55955 439.35945 294.81019 439.61567 296.09819 439.87187 297.38618 439.99998 298.68678 440 300Z"/>
<path transform="matrix(.4876435,0,0,.4876435,84.02001,297.71376)" d="M440 140C439.99998 141.31322 439.87187 142.61382 439.61567 143.9018 439.35945 145.18978 438.98005 146.4404 438.4775 147.65366 437.97496 148.86692 437.3589 150.01949 436.62934 151.11139 435.89976 152.2033 435.07066 153.21353 434.1421 154.14212 433.21348 155.0707 432.20323 155.89978 431.11134 156.62937 430.01945 157.35895 428.86686 157.97502 427.6536 158.47757 426.44038 158.98012 425.18977 159.35948 423.90177 159.61569 422.6138 159.87189 421.3132 159.99999 420 160 418.68678 159.99999 417.38618 159.87189 416.09819 159.61569 414.81019 159.35948 413.55958 158.98012 412.3463 158.47757 411.13304 157.97502 409.98048 157.35895 408.8886 156.62937 407.7967 155.89978 406.78645 155.0707 405.85786 154.14212 404.92924 153.21353 404.10014 152.2033 403.37055 151.11139 402.64097 150.01949 402.0249 148.86692 401.52238 147.65366 401.0198 146.4404 400.64045 145.18978 400.38426 143.9018 400.12806 142.61382 399.99998 141.31322 400 140 399.99998 138.68677 400.12806 137.38616 400.38426 136.09818 400.64045 134.8102 401.0198 133.55957 401.52238 132.34632 402.0249 131.13306 402.64097 129.98049 403.37055 128.88858 404.10014 127.79668 404.92924 126.78644 405.85786 125.85786 406.78645 124.92927 407.7967 124.10018 408.88859 123.3706 409.98048 122.641017 411.13304 122.02495 412.3463 121.5224 413.55958 121.01986 414.81019 120.64049 416.09819 120.38429 417.38618 120.1281 418.68678 120 420 120 421.3132 120 422.6138 120.1281 423.90177 120.38429 425.18977 120.64048 426.44038 121.01985 427.6536 121.52239 428.86686 122.02495 430.01945 122.641017 431.11137 123.3706 432.20326 124.10018 433.21348 124.92927 434.1421 125.85786 435.07066 126.78644 435.89976 127.79668 436.62934 128.88858 437.3589 129.98049 437.97496 131.13306 438.4775 132.34632 438.98005 133.55957 439.35945 134.8102 439.61567 136.09818 439.87187 137.38616 439.99998 138.68677 440 140Z" fill="#004aad"/>
<path transform="matrix(.4876435,0,0,.4876435,84.02001,297.71376)" stroke-width="1" stroke-linecap="butt" stroke-miterlimit="4" stroke-linejoin="miter" fill="none" stroke="#000000" d="M440 140C439.99998 141.31322 439.87187 142.61382 439.61567 143.9018 439.35945 145.18978 438.98005 146.4404 438.4775 147.65366 437.97496 148.86692 437.3589 150.01949 436.62934 151.11139 435.89976 152.2033 435.07066 153.21353 434.1421 154.14212 433.21348 155.0707 432.20323 155.89978 431.11134 156.62937 430.01945 157.35895 428.86686 157.97502 427.6536 158.47757 426.44038 158.98012 425.18977 159.35948 423.90177 159.61569 422.6138 159.87189 421.3132 159.99999 420 160 418.68678 159.99999 417.38618 159.87189 416.09819 159.61569 414.81019 159.35948 413.55958 158.98012 412.3463 158.47757 411.13304 157.97502 409.98048 157.35895 408.8886 156.62937 407.7967 155.89978 406.78645 155.0707 405.85786 154.14212 404.92924 153.21353 404.10014 152.2033 403.37055 151.11139 402.64097 150.01949 402.0249 148.86692 401.52238 147.65366 401.0198 146.4404 400.64045 145.18978 400.38426 143.9018 400.12806 142.61382 399.99998 141.31322 400 140 399.99998 138.68677 400.12806 137.38616 400.38426 136.09818 400.64045 134.8102 401.0198 133.55957 401.52238 132.34632 402.0249 131.13306 402.64097 129.98049 403.37055 128.88858 404.10014 127.79668 404.92924 126.78644 405.85786 125.85786 406.78645 124.92927 407.7967 124.10018 408.88859 123.3706 409.98048 122.641017 411.13304 122.02495 412.3463 121.5224 413.55958 121.01986 414.81019 120.64049 416.09819 120.38429 417.38618 120.1281 418.68678 120 420 120 421.3132 120 422.6138 120.1281 423.90177 120.38429 425.18977 120.64048 426.44038 121.01985 427.6536 121.52239 428.86686 122.02495 430.01945 122.641017 431.11137 123.3706 432.20326 124.10018 433.21348 124.92927 434.1421 125.85786 435.07066 126.78644 435.89976 127.79668 436.62934 128.88858 437.3589 129.98049 437.97496 131.13306 438.4775 132.34632 438.98005 133.55957 439.35945 134.8102 439.61567 136.09818 439.87187 137.38616 439.99998 138.68677 440 140Z"/>
<path transform="matrix(.4876435,0,0,.4876435,84.02001,297.71376)" stroke-width="1" stroke-linecap="butt" stroke-miterlimit="10" stroke-linejoin="miter" fill="none" stroke="#000000" d="M420 280V160"/>
<path transform="matrix(.4876435,0,0,.4876435,84.02001,297.71376)" d="M320 420C319.99998 421.3132 319.87187 422.6138 319.61567 423.90177 319.35948 425.18977 318.98008 426.44038 318.47755 427.6536 317.975 428.86686 317.35896 430.01945 316.62937 431.11137 315.89979 432.20326 315.0707 433.21348 314.14213 434.1421 313.21354 435.07066 312.20329 435.89976 311.1114 436.62934 310.01948 437.3589 308.86689 437.97496 307.65364 438.4775 306.4404 438.98005 305.18977 439.35945 303.90177 439.61567 302.61378 439.87187 301.3132 439.99998 300 440 298.68678 439.99998 297.38618 439.87187 296.09819 439.61567 294.81019 439.35945 293.55955 438.98005 292.34629 438.4775 291.13307 437.97496 289.98048 437.3589 288.88856 436.62934 287.79667 435.89976 286.7864 435.07066 285.85786 434.1421 284.92924 433.21348 284.10017 432.20323 283.37059 431.11134 282.641 430.01945 282.0249 428.86686 281.52238 427.6536 281.01985 426.44038 280.64048 425.18977 280.38429 423.90177 280.12809 422.6138 280 421.3132 280 420 280 418.68678 280.12809 417.38618 280.38429 416.09819 280.64048 414.81019 281.01985 413.55958 281.52238 412.3463 282.0249 411.13304 282.641 409.98048 283.37059 408.8886 284.10017 407.7967 284.92924 406.78645 285.85786 405.85786 286.7864 404.92924 287.79667 404.10014 288.88856 403.37055 289.98048 402.64097 291.13307 402.0249 292.34629 401.52238 293.55955 401.01985 294.81019 400.64048 296.09819 400.38429 297.38618 400.12809 298.68678 400 300 400 301.3132 400 302.61378 400.12809 303.90177 400.38426 305.18977 400.64045 306.4404 401.01985 307.65364 401.52238 308.86689 402.0249 310.01948 402.64097 311.11137 403.37055 312.20329 404.10014 313.21354 404.92924 314.14213 405.85786 315.0707 406.78645 315.89979 407.7967 316.62937 408.88859 317.35896 409.98048 317.975 411.13304 318.47755 412.3463 318.98008 413.55958 319.35948 414.81019 319.61567 416.09819 319.87187 417.38618 319.99998 418.68678 320 420Z" fill="#004aad"/>
<path transform="matrix(.4876435,0,0,.4876435,84.02001,297.71376)" stroke-width="1" stroke-linecap="butt" stroke-miterlimit="4" stroke-linejoin="miter" fill="none" stroke="#000000" d="M320 420C319.99998 421.3132 319.87187 422.6138 319.61567 423.90177 319.35948 425.18977 318.98008 426.44038 318.47755 427.6536 317.975 428.86686 317.35896 430.01945 316.62937 431.11137 315.89979 432.20326 315.0707 433.21348 314.14213 434.1421 313.21354 435.07066 312.20329 435.89976 311.1114 436.62934 310.01948 437.3589 308.86689 437.97496 307.65364 438.4775 306.4404 438.98005 305.18977 439.35945 303.90177 439.61567 302.61378 439.87187 301.3132 439.99998 300 440 298.68678 439.99998 297.38618 439.87187 296.09819 439.61567 294.81019 439.35945 293.55955 438.98005 292.34629 438.4775 291.13307 437.97496 289.98048 437.3589 288.88856 436.62934 287.79667 435.89976 286.7864 435.07066 285.85786 434.1421 284.92924 433.21348 284.10017 432.20323 283.37059 431.11134 282.641 430.01945 282.0249 428.86686 281.52238 427.6536 281.01985 426.44038 280.64048 425.18977 280.38429 423.90177 280.12809 422.6138 280 421.3132 280 420 280 418.68678 280.12809 417.38618 280.38429 416.09819 280.64048 414.81019 281.01985 413.55958 281.52238 412.3463 282.0249 411.13304 282.641 409.98048 283.37059 408.8886 284.10017 407.7967 284.92924 406.78645 285.85786 405.85786 286.7864 404.92924 287.79667 404.10014 288.88856 403.37055 289.98048 402.64097 291.13307 402.0249 292.34629 401.52238 293.55955 401.01985 294.81019 400.64048 296.09819 400.38429 297.38618 400.12809 298.68678 400 300 400 301.3132 400 302.61378 400.12809 303.90177 400.38426 305.18977 400.64045 306.4404 401.01985 307.65364 401.52238 308.86689 402.0249 310.01948 402.64097 311.11137 403.37055 312.20329 404.10014 313.21354 404.92924 314.14213 405.85786 315.0707 406.78645 315.89979 407.7967 316.62937 408.88859 317.35896 409.98048 317.975 411.13304 318.47755 412.3463 318.98008 413.55958 319.35948 414.81019 319.61567 416.09819 319.87187 417.38618 319.99998 418.68678 320 420Z"/>
<path transform="matrix(.4876435,0,0,.4876435,84.02001,297.71376)" stroke-width="1" stroke-linecap="butt" stroke-miterlimit="10" stroke-linejoin="miter" fill="none" stroke="#000000" d="M160 420H280"/>
<path transform="matrix(.4876435,0,0,.4876435,84.02001,297.71376)" stroke-width="1" stroke-linecap="butt" stroke-miterlimit="10" stroke-linejoin="miter" fill="none" stroke="#000000" d="M405.86 314.14 314.14 405.86"/>
<path transform="matrix(.4876435,0,0,.4876435,84.02001,297.71376)" stroke-width="1" stroke-linecap="butt" stroke-miterlimit="10" stroke-linejoin="miter" fill="none" stroke="#000000" d="M314.14 34.14 405.86 125.86"/>
</g>
<g clip-path="url(#clip_3)">
<path transform="matrix(.5110575,0,0,.5110575,143.5423,357.8253)" d="M156.28 103.38C157.31887 103.38573 158.35552 103.34053 159.38996 103.24441 160.42438 103.148288 161.4516 103.00169 162.47162 102.804637 163.49166 102.60759 164.49956 102.36102 165.49536 102.06493 166.49117 101.76885 167.47005 101.424678 168.43202 101.03241 169.39402 100.64015 170.33446 100.20169 171.25336 99.71703 172.17226 99.23236 173.0652 98.70383 173.93216 98.13143 174.79915 97.55904 175.63599 96.94553 176.44268 96.29092 177.24936 95.63629 178.02204 94.94371 178.76067 94.213169 179.49933 93.48263 180.2004 92.71765 180.86388 91.918239 181.52736 91.118808 182.15006 90.28879 182.73198 89.428188 183.3139 88.56759 183.85227 87.68054 184.34703 86.76704 184.8418 85.85354 185.29062 84.917987 185.69347 83.96038 186.09633 83.00279 186.4513 82.027759 186.75835 81.035289 187.0654 80.042819 187.32306 79.03768 187.53136 78.01989 187.73966 77.002109 187.89759 75.97656 188.00511 74.94326 188.11264 73.90996 188.16928 72.87387 188.175 71.83499 188.18076 70.79612 188.13556 69.759479 188.03942 68.725048 187.9433 67.69062 187.7967 66.66339 187.59964 65.643367 187.4026 64.62334 187.15604 63.61543 186.85994 62.61963 186.56386 61.62383 186.21968 60.644937 185.82741 59.68295 185.43515 58.72097 184.99669 57.78053 184.51203 56.861627 184.02736 55.942724 183.49883 55.049787 182.92642 54.18281 182.35405 53.31584 181.74054 52.47901 181.08592 51.67232 180.4313 50.865629 179.73873 50.092958 179.00818 49.354314 178.27764 48.61567 177.51267 47.914609 176.71324 47.251127 175.91382 46.587644 175.0838 45.964937 174.22319 45.383005 173.3626 44.801076 172.47554 44.262723 171.56204 43.76795 170.64855 43.273176 169.71298 42.82436 168.75539 42.42151 167.79779 42.018659 166.82277 41.663705 165.8303 41.35665 164.83785 41.0496 163.83272 40.791925 162.81491 40.583627 161.79714 40.37533 160.77158 40.217424 159.73827 40.109895 158.70496 40.00236 157.66887 39.945734 156.63 39.94 156.40454 38.96294 156.09906 38.011579 155.71356 37.085916 155.32805 36.16025 154.86794 35.273298 154.3332 34.42505 153.79848 33.576795 153.19666 32.77917 152.52773 32.032175 151.8588 31.285174 151.13219 30.5993 150.34787 29.974555 149.56356 29.349804 148.73256 28.79496 147.8549 28.310019 146.97724 27.825078 146.06523 27.416857 145.1189 27.085356 144.17253 26.753853 143.20514 26.503729 142.21672 26.334984 141.2283 26.166239 140.23273 26.081244 139.23001 26.079998 138.45345 26.080145 137.68012 26.130145 136.91 26.229998 135.98532 25.097636 134.97814 24.044154 133.88843 23.069554 132.79872 22.094954 131.63979 21.211119 130.41162 20.418049 129.18349 19.62498 127.90109 18.932349 126.564449 18.34015 125.22781 17.747956 123.85323 17.263415 122.44069 16.886528 121.02816 16.509644 119.594898 16.24501 118.14091 16.092629 116.68692 15.940248 115.229938 15.901976 113.769939 15.977812 112.30996 16.05365 110.864788 16.242672 109.43441 16.54488 108.00403 16.847086 106.605899 17.258793 105.240009 17.779999 103.91647 15.99311 102.46565 14.316354 100.88754 12.74973 99.30944 11.183106 97.62214 9.744567 95.82563 8.434113 94.02912 7.123658 92.144 5.9563047 90.170269 4.932051 88.196529 3.9077979 86.15679 3.0383819 84.051059 2.3238033 81.945339 1.6092249 79.79774 1.0576724 77.60826 .66914537 75.41879 .28061835 73.21254 .059569077 70.98951 .0059975578 68.76648-.047573974 66.55215 .06694609 64.346508 .3495578 62.140859 .6321695 59.96918 1.0796343 57.83147 1.6919524 55.693765 2.3042706 53.61452 3.0744253 51.59374 4.0024168 49.57296 4.9304087 47.633798 6.005603 45.77625 7.228 43.918706 8.4503979 42.164068 9.805991 40.51233 11.29478 38.86059 12.783569 37.330686 14.388494 35.922609 16.109555 34.51453 17.830616 33.244424 19.648093 32.112279 21.561985 30.980135 23.475876 29.998929 25.46425 29.168662 27.527108 28.338397 29.589966 27.668583 31.70367 27.15922 33.86822 26.649857 36.032773 26.306784 38.223367 26.13 40.44 24.19717 40.7873 22.312842 41.30959 20.477017 42.006868 18.641192 42.704145 16.885262 43.564485 15.209227 44.587888 13.533193 45.611299 11.965715 46.780267 10.506795 48.0948 9.047874 49.409334 7.722458 50.84695 6.530545 52.40765 5.3386328 53.968355 4.300607 55.625455 3.4164685 57.378953 2.532329 59.132448 1.8171954 60.95235 1.2710676 62.838666 .7249397 64.72499 .3571564 66.64547 .1677176 68.6001-.0217212 70.554729-.029575959 72.51008 .14415331 74.466159 .31788237 76.42224 .67022457 78.345607 1.20118 80.23625 1.7321355 82.1269 2.4326246 83.95249 3.3026474 85.71303 4.1726706 87.47358 5.197349 89.13896 6.376684 90.70919 7.55602 92.27942 8.8698439 93.72764 10.318155 95.05385 11.766468 96.38006 13.324504 97.561588 14.992262 98.59843 16.660019 99.63527 18.40898 100.50969 20.239144 101.22169 22.069308 101.9337 23.949379 102.471118 25.879359 102.83393 27.809336 103.19675 29.756217 103.37877 31.72 103.38H38.55V125.8C38.548204 126.81782 38.458787 127.82787 38.281755 128.83017 38.10472 129.83248 37.842718 130.81204 37.49574 131.76889 37.148759 132.72574 36.72199 133.64556 36.21543 134.52835 35.708868 135.41117 35.13008 136.24376 34.479074 137.02616 33.82806 137.80854 33.11455 138.52902 32.338544 139.18762 31.562533 139.84624 30.735615 140.4331 29.85779 140.94826 28.979962 141.46338 28.064339 141.8991 27.11092 142.25539 26.157502 142.61168 25.180529 142.88323 24.18 143.07 23.840182 142.15349 23.398627 141.28893 22.855332 140.47632 22.312037 139.66371 21.681845 138.92528 20.964756 138.261 20.247672 137.59671 19.463276 137.02474 18.611573 136.54506 17.759869 136.06537 16.864123 135.6911 15.924334 135.42224 14.984546 135.15338 14.026388 134.99727 13.049859 134.95392 12.07333 134.91057 11.105106 134.98114 10.145188 135.16564 9.185271 135.35016 8.259881 135.64359 7.3690168 136.04589 6.4781529 136.4482 5.6461517 136.94841 4.873013 137.54653 4.099875 138.14466 3.4067188 138.82434 2.793545 139.58559 2.1803714 140.34685 1.6639295 141.16887 1.2442199 142.05165 .8245106 142.93447 .5129985 143.85393 .30968375 144.81003 .10636893 145.76615 .016805329 146.73279 .040992906 147.70998 .06518049 148.68717 .20245853 149.64821 .45282708 150.5931 .7031956 151.53797 1.0598153 152.44087 1.5226863 153.30182 1.9855573 154.1628 2.5420354 154.95827 3.1921204 155.68827 3.8422056 156.41825 4.5681397 157.06279 5.369922 157.62192 6.1717054 158.18105 7.027435 158.6395 7.9371116 158.99726 8.846788 159.35498 9.785562 159.60225 10.753432 159.73905 11.721304 159.87584 12.6918339 159.89844 13.665021 159.80683 14.638209 159.7152 15.587471 159.51187 16.512806 159.19686 17.438143 158.88184 18.314274 158.46372 19.141203 157.9425 19.968134 157.42127 20.72327 156.81118 21.406615 156.11222 22.08996 155.41327 22.682847 154.64456 23.185275 153.80608 23.6877 152.96759 24.085944 152.08223 24.380002 151.15001 25.901041 150.94278 27.391434 150.60166 28.85118 150.12662 30.310925 149.65158 31.716645 149.05027 33.06834 148.32265 34.42004 147.59503 35.696069 146.75278 36.896429 145.79589 38.096788 144.83899 39.202257 143.78278 40.212827 142.62725 41.2234 141.47173 42.1229 140.23538 42.911325 138.91823 43.69975 137.60108 44.364477 136.22418 44.9055 134.78759 45.44652 133.351 45.855184 131.87769 46.131479 130.36766 46.407773 128.85765 46.54728 127.3351 46.55 125.8V103.38H73.87V163.7C72.94033 164.01428 72.05993 164.43235 71.2288 164.95417 70.39766 165.47597 69.63857 166.08725 68.95152 166.788 68.26448 167.48874 67.668308 168.25974 67.162998 169.101 66.657688 169.94228 66.25709 170.83077 65.96121 171.76645 65.66533 172.70214 65.48227 173.65941 65.41203 174.63826 65.3418 175.6171 65.38631 176.5907 65.54556 177.55905 65.70482 178.52739 65.97446 179.46398 66.35447 180.36878 66.73449 181.27355 67.21448 182.12177 67.79443 182.91342 68.37439 183.70508 69.03843 184.41847 69.786548 185.0536 70.53466 185.68875 71.34636 186.22821 72.221637 186.67201 73.09691 187.11582 74.01178 187.4518 74.966259 187.67993 75.92073 187.9081 76.88864 188.02217 77.87 188.02217 78.851367 188.02217 79.819278 187.9081 80.77374 187.67993 81.72821 187.4518 82.64308 187.11583 83.518367 186.67203 84.39364 186.22823 85.20533 185.68875 85.953449 185.05362 86.70157 184.41847 87.36561 183.70508 87.945568 182.91342 88.52553 182.12177 89.005519 181.27355 89.38553 180.36876 89.76555 179.46396 90.03519 178.52738 90.194438 177.55904 90.3537 176.59067 90.39821 175.61707 90.32797 174.63823 90.25774 173.65938 90.07468 172.7021 89.77879 171.76642 89.48291 170.83074 89.08231 169.94225 88.57701 169.10097 88.07169 168.2597 87.47552 167.48871 86.788478 166.78797 86.10143 166.08724 85.34235 165.47595 84.511219 164.95415 83.68008 164.43235 82.799678 164.01428 81.87 163.7V103.38H109.2V150.51999C108.27124 150.83425 107.39174 151.25214 106.561489 151.77368 105.73122 152.29524 104.972949 152.90615 104.28667 153.6064 103.600399 154.30667 103.00492 155.07712 102.50024 155.91773 101.99556 156.75835 101.5955 157.6461 101.30005 158.58103 101.0046 159.51593 100.82187 160.47237 100.75185 161.45035 100.68183 162.42833 100.72644 163.40105 100.88568 164.3685 101.04492 165.33596 101.31443 166.27165 101.694217 167.1756 102.074 168.07955 102.55365 168.92697 103.133159 169.71787 103.71266 170.50876 104.37615 171.22147 105.12364 171.85597 105.87113 172.49048 106.68213 173.0294 107.55664 173.47277 108.43115 173.91613 109.345218 174.25177 110.298839 174.47969 111.25246 174.70761 112.219509 174.82158 113.19998 174.82158 114.180469 174.82158 115.147518 174.70761 116.101139 174.47969 117.054759 174.25177 117.96883 173.91613 118.84334 173.47277 119.71785 173.0294 120.528858 172.49047 121.276348 171.85596 122.02383 171.22145 122.687328 170.50876 123.26683 169.71787 123.84634 168.92697 124.32597 168.07955 124.70576 167.1756 125.08554 166.27165 125.35505 165.33596 125.51429 164.3685 125.67354 163.40105 125.71815 162.42833 125.64813 161.45035 125.57811 160.47237 125.39538 159.51592 125.09993 158.58101 124.80449 157.6461 124.40443 156.75835 123.899738 155.91773 123.39505 155.07712 122.79957 154.30667 122.11329 153.6064 121.427028 152.90615 120.66877 152.29524 119.83852 151.77368 119.008258 151.25214 118.128749 150.83425 117.2 150.51999V103.38H142V121.38C142.00189 122.87996 142.13726 124.36778 142.40608 125.84345 142.67491 127.31914 143.07292 128.75911 143.60012 130.16336 144.12732 131.56763 144.77529 132.91378 145.544 134.20178 146.31273 135.48979 147.18994 136.6991 148.17565 137.82971 149.16135 138.96033 150.23979 139.99419 151.41098 140.93129 152.58217 141.86841 153.82743 142.6938 155.14672 143.4075 156.466 144.1212 157.83829 144.7118 159.26355 145.17929 160.68883 145.64678 162.1443 145.98368 163.63 146.19 163.9237 147.12618 164.32212 148.01543 164.82523 148.85779 165.32836 149.70014 165.92241 150.47255 166.6074 151.17502 167.2924 151.87749 168.04962 152.49079 168.87905 153.01494 169.70847 153.5391 170.58744 153.95977 171.51592 154.27695 172.4444 154.59413 173.397 154.79914 174.37375 154.89199 175.35051 154.98485 176.3247 154.96302 177.29634 154.82648 178.26795 154.68993 179.21042 154.44242 180.12377 154.08394 181.0371 153.72547 181.89632 153.26583 182.70142 152.70503 183.5065 152.14423 184.23546 151.49759 184.88828 150.76512 185.54113 150.03267 186.09998 149.23442 186.56484 148.37036 187.02968 147.5063 187.38784 146.60009 187.6393 145.65169 187.89075 144.70331 188.02864 143.73868 188.05297 142.75782 188.07726 141.77695 187.98732 140.80667 187.78314 139.84699 187.57898 138.88729 187.26616 137.96443 186.84468 137.07842 186.42319 136.19239 185.90457 135.36742 185.28882 134.60352 184.67308 133.83962 183.97705 133.15769 183.20073 132.5577 182.42441 131.9577 181.589 131.45606 180.69454 131.05278 179.80008 130.64949 178.87102 130.35559 177.90737 130.1711 176.94371 129.98659 175.9718 129.91652 174.99163 129.96088 174.01148 130.00524 173.04988 130.16283 172.10683 130.43363 171.16378 130.70442 170.26506 131.08103 169.41069 131.56345 168.55632 132.04589 167.76966 132.62093 167.05069 133.28859 166.33174 133.95626 165.70015 134.69829 165.15593 135.5147 164.6117 136.33109 164.16973 137.19951 163.83 138.12 162.86322 137.93309 161.91967 137.66455 160.99935 137.31436 160.07901 136.96416 159.1956 136.53752 158.3491 136.03446 157.50263 135.53139 156.70563 134.95937 155.95815 134.31838 155.21065 133.67737 154.52376 132.97693 153.89746 132.21706 153.2712 131.45719 152.71483 130.64919 152.22837 129.79303 151.74192 128.93688 151.33261 128.04529 151.00045 127.1183 150.66829 126.191318 150.41822 125.24269 150.25023 124.27244 150.08225 123.30218 149.99883 122.3247 150 121.34V103.34L156.28 103.38ZM12.48 151.86C11.887098 151.8547 11.317689 151.73636 10.771772 151.50499 10.225856 151.27362 9.744832 150.94676 9.328699 150.52439 8.912566 150.10202 8.592883 149.6162 8.369649 149.0669 8.146414 148.51761 8.036557 147.9465 8.040079 147.35358 8.043601 146.76067 8.160234 146.1909 8.389977 145.64429 8.619721 145.09767 8.945153 144.61568 9.366274 144.19829 9.787395 143.7809 10.272268 143.45977 10.820895 143.2349 11.369522 143.01003 11.940296 142.89846 12.533219 142.90019 13.126142 142.90195 13.696248 143.01688 14.243538 143.24498 14.790828 143.47309 15.273798 143.79709 15.692449 144.21697 16.1111 144.63684 16.433682 145.12075 16.660197 145.66869 16.88671 146.21663 16.999978 146.78707 17 147.38 16.998682 147.97716 16.882847 148.5512 16.652495 149.10213 16.42214 149.65306 16.094902 150.13872 15.670777 150.55908 15.246654 150.97945 14.758111 151.30234 14.20515 151.52779 13.652189 151.75325 13.07714 151.86399 12.48 151.86ZM77.87 180C77.27621 179.99868 76.705249 179.88384 76.15711 179.65547 75.608989 179.42713 75.125377 179.10262 74.706279 178.68196 74.28718 178.26129 73.96447 177.77648 73.73816 177.22751 73.51184 176.67855 73.399127 176.10715 73.40001 175.51335 73.400897 174.91956 73.51531 174.34851 73.743259 173.8002 73.9712 173.25189 74.29535 172.76804 74.7157 172.34865 75.13604 171.92923 75.62062 171.60616 76.16943 171.37943 76.71824 171.15271 77.289539 171.03957 77.88333 171.04001 78.47713 171.04045 79.048259 171.15444 79.596729 171.38199 80.145198 171.60953 80.629299 171.93332 81.04902 172.35337 81.468738 172.77339 81.79216 173.25772 82.019298 173.80635 82.24643 174.355 82.35999 174.92621 82.36 175.52 82.35867 176.11454 82.24379 176.68627 82.01535 177.23517 81.78691 177.78408 81.46225 178.26851 81.041378 178.68845 80.6205 179.10839 80.13536 179.43196 79.585948 179.65918 79.03653 179.88639 78.46455 179.99999 77.87 180ZM113.200008 166.82C112.60431 166.82134 112.031047 166.70858 111.480228 166.48175 110.92941 166.2549 110.443 165.93126 110.020999 165.51082 109.59899 165.09038 109.27355 164.60517 109.04467 164.05519 108.815799 163.50522 108.70091 162.93239 108.70002 162.33669 108.69914 161.74098 108.812328 161.1678 109.03957 160.61716 109.26682 160.06652 109.59082 159.58034 110.01157 159.15865 110.43233 158.73696 110.91777 158.41188 111.46792 158.18341 112.01806 157.95493 112.59098 157.84047 113.186679 157.84003 113.78238 157.83959 114.35547 157.9532 114.90595 158.18085 115.456439 158.40853 115.94237 158.73288 116.363758 159.15395 116.78513 159.57501 117.10985 160.06069 117.33791 160.611 117.56598 161.1613 117.680019 161.73432 117.68001 162.33 117.678699 162.92414 117.5642 163.4956 117.33653 164.0444 117.108867 164.59319 116.78521 165.07788 116.365558 165.49848 115.9459 165.91907 115.46192 166.2438 114.913639 166.4727 114.36535 166.7016 113.794139 166.81737 113.2 166.82H113.200008ZM175.52 137.91C176.11408 137.91 176.68555 138.02368 177.2344 138.25102 177.78327 138.47837 178.26775 138.80208 178.68784 139.22217 179.10791 139.64225 179.43163 140.12671 179.65897 140.67555 179.88632 141.22443 180 141.7959 180.00002 142.39 180 142.98409 179.88632 143.55556 179.65898 144.1044 179.43163 144.65326 179.10791 145.13773 178.68784 145.55782 178.26775 145.97789 177.78327 146.3016 177.23442 146.52896 176.68555 146.7563 176.11408 146.86998 175.52 146.87 174.9259 146.86998 174.35442 146.7563 173.80558 146.52896 173.2567 146.3016 172.77223 145.97789 172.35218 145.55782 171.93209 145.13773 171.60836 144.65326 171.381 144.1044 171.15366 143.55556 171.04 142.98409 171.04001 142.39 171.04132 141.79633 171.15589 141.22536 171.3837 140.67713 171.6115 140.12889 171.93529 139.64487 172.35509 139.22509 172.77487 138.80529 173.2589 138.48148 173.80715 138.25368 174.35538 138.02588 174.92633 137.91133 175.52 137.91ZM8 71.66C8.000829 70.16579 8.141591 68.68487 8.422288 67.21725 8.702984 65.74962 9.118647 64.32127 9.669274 62.932214 10.219903 61.543149 10.895752 60.217947 11.69682 58.9566 12.497889 57.69526 13.41 56.5201 14.433153 55.431127 15.456306 54.342157 16.572394 53.35865 17.781414 52.480604 18.990433 51.60255 20.270987 50.8455 21.623074 50.209455 22.975163 49.57341 24.374855 49.069623 25.82215 48.69809 27.269446 48.32656 28.73873 48.093866 30.23 48L34 47.71V43.94C33.999753 42.000368 34.1555 40.073347 34.467245 38.15893 34.778989 36.24452 35.242673 34.36764 35.858297 32.5283 36.473917 30.68896 37.23346 28.911105 38.13693 27.194739 39.040399 25.478373 40.076025 23.845845 41.24381 22.297152 42.41159 20.748457 43.696325 19.303767 45.09801 17.963082 46.499696 16.622397 48.000085 15.403172 49.59917 14.305408 51.198255 13.207643 52.875215 12.245632 54.630056 11.419377 56.384897 10.5931229 58.194768 9.913381 60.059667 9.380153 61.92456 8.846926 63.820199 8.467155 65.74658 8.240842 67.67296 8.014529 69.605 7.9446208 71.54271 8.031116 73.4804 8.117611 75.39853 8.359384 77.29708 8.756434 79.19564 9.153485 81.049907 9.700644 82.85987 10.39791 84.66984 11.095177 86.41194 11.933471 88.08619 12.912792 89.76043 13.892116 91.34501 14.999715 92.839939 16.23559 94.33485 17.471467 95.720638 18.819525 96.997287 20.279767 98.27393 21.740008 99.42484 23.293419 100.45 24.939999L102.45 28.13 105.759998 26.34C108.7178 24.727324 111.881137 23.927325 115.24999 23.94 116.89943 23.940299 118.52396 24.141564 120.12359 24.543795 121.72322 24.946024 123.24973 25.537095 124.70312 26.317008 126.15651 27.09692 127.49297 28.042162 128.71251 29.152733 129.93204 30.263306 130.99787 31.505728 131.90999 32.88L133.54999 35.350004 136.38999 34.500005C137.12647 34.27763 137.87868 34.143297 138.6466 34.096998 139.41454 34.050699 140.17745 34.093687 140.9353 34.225965 141.69318 34.35824 142.42554 34.57623 143.13237 34.879938 143.8392 35.183645 144.50144 35.56485 145.11905 36.023565 145.73665 36.482278 146.29296 37.006097 146.78795 37.59502 147.28296 38.183954 147.70326 38.82208 148.04889 39.50939 148.39452 40.196706 148.65613 40.91464 148.83371 41.663187 149.0113 42.411737 149.10007 43.170675 149.09999 43.940004V47.940004H156.29999C157.85747 47.940004 159.39997 48.091928 160.9275 48.39577 162.45505 48.69962 163.9383 49.149557 165.37722 49.745576 166.81613 50.341596 168.18309 51.072248 169.47809 51.937536 170.77309 52.802827 171.97124 53.786127 173.07256 54.88743 174.17386 55.988729 175.15715 57.18688 176.02243 58.481874 176.88773 59.776865 177.61838 61.14382 178.21439 62.582746 178.81041 64.02167 179.26035 65.504909 179.56421 67.03246 179.86806 68.56001 180.01998 70.10252 180.01999 71.66 180.01998 73.217479 179.86806 74.759998 179.56421 76.287548 179.26036 77.815097 178.81043 79.298328 178.2144 80.73724 177.61838 82.17616 176.88773 83.54312 176.02243 84.83812 175.15715 86.13312 174.17386 87.33127 173.07256 88.43257 171.97124 89.53387 170.77309 90.51716 169.47809 91.38245 168.18309 92.247737 166.81613 92.978389 165.37722 93.57441 163.9383 94.17043 162.45505 94.62037 160.9275 94.924228 159.39997 95.22808 157.85747 95.380008 156.29999 95.380008H31.72C30.163077 95.37804 28.621254 95.22446 27.094534 94.91927 25.567812 94.61409 24.085434 94.16314 22.6474 93.56642 21.209366 92.9697 19.843218 92.23865 18.548956 91.37325 17.254694 90.50786 16.057106 89.52471 14.956194 88.423809 13.855283 87.32289 12.872132 86.125308 12.0067429 84.83105 11.141353 83.53678 10.410299 82.17063 9.813582 80.7326 9.216866 79.29456 8.765914 77.81219 8.460728 76.28546 8.155541 74.75874 8.0019659 73.21693 8 71.66Z" fill="#004aad"/>
</g>
<g clip-path="url(#clip_4)">
<use data-text="F" xlink:href="#font_5_41" transform="matrix(225.52501,0,0,-225.52501,298.83634,473.25)" fill="#004aad"/>
<use data-text="E" xlink:href="#font_5_40" transform="matrix(225.52501,0,0,-225.52501,430.3172,473.25)" fill="#004aad"/>
<use data-text="D" xlink:href="#font_5_39" transform="matrix(225.52501,0,0,-225.52501,567.43618,473.25)" fill="#004aad"/>
</g>
</svg>
